# Blender v2.90.0 OBJ File: ''
# www.blender.org
mtllib pyramid.mtl
o Cube
v 1.000000 -1.000000 -1.000000
v 1.000000 -1.000000 1.000000
v -1.000000 -1.000000 -1.000000
v -0.000880 1.000000 0.000880
v -1.000000 -1.000000 1.000000
vt 0.125000 0.750000
vt 0.000000 0.000000
vt 0.125000 0.500000
vt 0.375000 0.750000
vt 0.375000 0.500000
vn -0.8946 0.4469 0.0000
vn 0.0000 0.4469 0.8946
vn 0.8943 0.4475 0.0000
vn 0.0000 0.4475 -0.8943
usemtl Material
s off
f 5/1/1 4/2/1 3/3/1
f 4/2/2 5/1/2 2/4/2
f 2/4/3 1/5/3 4/2/3
f 3/3/4 4/2/4 1/5/4
